PathFileType	4	(X/Y/Z)	D:\Vicon data\Senior Design EMG regression\Subject 1- Steven\Session 1\steven - static trial01.trc
DataRate	CameraRate	NumFrames	NumMarkers	Units	OrigDataRate	OrigDataStartFrame	OrigNumFrames
100.0	100.0	4	60	mm	100.0	510	582	
Frame#	Time	HEAD			C7			CLAV			STUR			LSHO			LHAR2			LHME			LRAH			LRAD			LULN			LMCM			RSHO			RHAR2			RHME			RRAH			RRAD			RULN			RMCM			LASI			RASI			LPSI			RPSI			LLAT			LLFC			LKNE			LLAN			LHEE			LTOE			RLAT			RLFC			RKNE			RLAN			RHEE			RTOE			RSMT			RMAN			LSMT			LMAN			RSAT1			RSAT			RMFC			LSAT1			LSAT			LMFC			BARB			RHAR1			RHGT			RHHB			RHHF			RHLE			RMCR			RMCA			RMCI			LHHF			LHHB			LHGT			LHAR1			LHLE			LMCR			LMCI			
		X1	Y1	Z1	X2	Y2	Z2	X3	Y3	Z3	X4	Y4	Z4	X5	Y5	Z5	X6	Y6	Z6	X7	Y7	Z7	X8	Y8	Z8	X9	Y9	Z9	X10	Y10	Z10	X11	Y11	Z11	X12	Y12	Z12	X13	Y13	Z13	X14	Y14	Z14	X15	Y15	Z15	X16	Y16	Z16	X17	Y17	Z17	X18	Y18	Z18	X19	Y19	Z19	X20	Y20	Z20	X21	Y21	Z21	X22	Y22	Z22	X23	Y23	Z23	X24	Y24	Z24	X25	Y25	Z25	X26	Y26	Z26	X27	Y27	Z27	X28	Y28	Z28	X29	Y29	Z29	X30	Y30	Z30	X31	Y31	Z31	X32	Y32	Z32	X33	Y33	Z33	X34	Y34	Z34	X35	Y35	Z35	X36	Y36	Z36	X37	Y37	Z37	X38	Y38	Z38	X39	Y39	Z39	X40	Y40	Z40	X41	Y41	Z41	X42	Y42	Z42	X43	Y43	Z43	X44	Y44	Z44	X45	Y45	Z45	X46	Y46	Z46	X47	Y47	Z47	X48	Y48	Z48	X49	Y49	Z49	X50	Y50	Z50	X51	Y51	Z51	X52	Y52	Z52	X53	Y53	Z53	X54	Y54	Z54	X55	Y55	Z55	X56	Y56	Z56	X57	Y57	Z57	X58	Y58	Z58	X59	Y59	Z59	X60	Y60	Z60	
510	5.09	-73.441071	1645.0931	-325.87729	-66.107094	1451.8733	-133.04486	-67.627266	1399.9175	-271.79861	-75.047653	1254.463	-313.85455	-182.80356	1468.9298	-180.8409	-358.77628	1448.7144	-193.96269	-478.02756	1351.761	-181.49577	-455.32599	1426.5248	-271.18082	-478.25687	1403.4142	-411.63907	-536.70337	1429.9174	-404.41299	-511.63464	1419.2374	-500.69577	53.394264	1458.7589	-170.97108	213.06384	1439.2887	-186.39825	347.30362	1336.9301	-182.59875	299.86319	1417.0931	-263.55811	292.40994	1393.7301	-409.53381	353.14236	1429.8226	-408.57889	320.21301	1428.9402	-500.12589	-193.88875	965.46472	-305.36182	71.425491	994.328	-282.36234	-132.72649	986.54218	-157.12335	-21.985315	987.31262	-144.78683	-215.92656	607.36267	-277.07083	-203.44524	501.7926	-241.06483	-161.66652	474.32574	-279.41379	-181.35535	93.46476	-174.17189	-134.58133	68.528061	-111.94538	-145.19542	49.39249	-372.29465	115.46275	683.84467	-271.65796	92.909134	502.45477	-250.54716	41.146027	477.54282	-296.12823	88.340027	104.45551	-188.93738	40.065575	63.411789	-119.31511	52.224213	47.333305	-383.01053	118.46437	40.307152	-336.82297	2.9142158	121.32544	-195.62177	-210.31206	43.608479	-323.35843	-101.60555	127.00878	-197.44406	87.432312	767.07745	-335.03854	43.427544	640.30725	-325.50891	-11.153625	490.82028	-241.02011	-207.91971	766.50879	-332.54419	-158.81044	631.74573	-324.00479	-107.67747	488.08438	-226.44801	-8.1898212	1284.443	-83.907654	267.74316	1421.1785	-146.69772	134.66415	1457.3741	-160.37627	81.613525	1441.1639	-119.89518	76.59922	1446.3204	-225.87154	358.33533	1418.5736	-175.40944	344.57614	1424.9607	-493.5451	356.55334	1418.7539	-453.63821	298.59689	1421.7274	-505.00513	-211.08273	1456.7792	-229.05083	-217.20287	1451.9763	-134.99609	-301.91287	1463.9325	-153.93938	-413.90094	1437.3715	-148.83629	-496.15234	1431.9452	-174.52603	-537.54034	1414.952	-494.13251	-493.12866	1417.2421	-504.04053
511	5.1	-73.455666	1645.1261	-325.883	-66.091576	1451.8651	-133.02322	-67.603401	1399.9508	-271.79459	-74.943542	1254.5027	-314.00208	-182.79564	1468.9242	-180.83614	-358.81326	1448.6771	-193.89888	-478.02042	1351.7001	-181.45427	-455.38364	1426.4525	-271.13409	-478.30774	1403.3719	-411.6127	-536.74866	1429.8745	-404.35895	-511.66959	1419.1965	-500.63782	53.342972	1458.7368	-170.95132	213.07027	1439.2844	-186.35591	347.29572	1336.9476	-182.58286	299.92676	1416.9128	-263.58929	292.28174	1393.7565	-409.36566	353.14059	1429.8077	-408.5517	320.21588	1428.939	-500.08536	-193.88503	965.49377	-305.30701	71.413155	994.32965	-282.31415	-132.69135	986.50537	-157.08331	-21.930147	987.29199	-144.71999	-215.94482	607.39325	-277.03217	-203.45544	501.80753	-241.04182	-161.69695	474.36639	-279.38315	-181.35344	93.469261	-174.16808	-134.57233	68.52668	-111.91608	-145.19656	49.408752	-372.28641	115.45392	683.83545	-271.64014	92.940475	502.45953	-250.54491	41.129307	477.57925	-296.17947	88.335571	104.44324	-188.88948	40.068562	63.391232	-119.29974	52.213039	47.34351	-382.98541	118.49109	40.340359	-336.82651	2.9277048	121.33007	-195.57248	-210.37836	43.690205	-323.34235	-101.57768	127.00211	-197.43422	87.425591	767.0802	-335.01675	43.450813	640.3728	-325.54874	-11.242789	490.79944	-241.01529	-207.91982	766.55353	-332.5173	-158.81734	631.79602	-323.97549	-107.66927	488.10794	-226.40128	-8.1784191	1284.4417	-83.869354	267.7608	1421.1827	-146.65468	134.67357	1457.3804	-160.37245	81.658546	1441.1949	-119.8902	76.601631	1446.322	-225.82393	358.34933	1418.5718	-175.38589	344.57263	1424.963	-493.52048	356.51022	1418.728	-453.63129	298.58182	1421.7373	-504.95721	-211.1236	1456.7606	-229.00038	-217.30804	1451.9613	-134.91277	-301.92361	1463.8979	-153.88417	-413.89365	1437.3126	-148.80214	-496.15955	1431.8872	-174.48328	-537.58044	1414.9113	-494.10794	-493.17932	1417.0581	-503.73102
512	5.11	-73.481049	1645.1138	-325.77783	-66.11808	1451.8602	-133.01422	-67.611557	1399.9341	-271.73856	-75.062492	1254.5115	-313.8461	-182.83542	1468.9004	-180.80951	-358.81848	1448.6362	-193.87036	-478.05432	1351.6293	-181.40526	-455.42902	1426.3698	-271.07529	-478.35251	1403.3062	-411.54169	-536.79718	1429.8193	-404.30579	-511.69525	1419.0836	-500.51892	53.375126	1458.7397	-170.95102	213.06897	1439.2832	-186.35246	347.29868	1336.9635	-182.53786	299.90317	1416.9556	-263.57275	292.52191	1393.6605	-409.5011	353.14737	1429.7986	-408.54776	320.16785	1428.9131	-500.10486	-193.90845	965.50055	-305.27271	71.430046	994.33148	-282.28976	-132.73656	986.51587	-157.06473	-21.957691	987.27722	-144.7137	-215.94353	607.3811	-277.00879	-203.47993	501.76816	-241.03859	-161.69452	474.35538	-279.38358	-181.36986	93.473083	-174.1635	-134.59608	68.524284	-111.93298	-145.20032	49.417439	-372.28168	115.46872	683.84125	-271.64026	92.919739	502.46066	-250.53627	41.122875	477.57718	-296.16141	88.323013	104.44813	-188.87656	40.045078	63.406506	-119.30294	52.207844	47.364212	-382.97052	118.48062	40.348606	-336.81107	2.9072998	121.31731	-195.56935	-210.31848	43.612499	-323.32401	-101.60273	127.03525	-197.41975	87.393822	767.08179	-334.99707	43.428211	640.37115	-325.52747	-11.226145	490.73608	-240.99767	-207.93225	766.54688	-332.48993	-158.83847	631.79327	-323.95413	-107.67896	488.1315	-226.3923	-8.2131271	1284.4573	-83.855141	267.77509	1421.1768	-146.6339	134.66051	1457.3708	-160.3643	81.504555	1441.0751	-119.87343	76.610771	1446.3317	-225.82132	358.33591	1418.5671	-175.38878	344.54929	1424.937	-493.52075	356.50671	1418.7217	-453.64038	298.55222	1421.6929	-504.97437	-211.13162	1456.7557	-228.98734	-217.18098	1451.9426	-134.93643	-301.95395	1463.868	-153.87022	-413.91968	1437.2542	-148.75993	-496.19235	1431.8164	-174.45219	-537.61523	1414.8673	-494.09088	-493.24292	1417.1677	-503.99573
513	5.12	-73.482452	1645.0941	-325.79514	-66.123512	1451.882	-132.97552	-67.619263	1399.9214	-271.74203	-74.985008	1254.4434	-313.98032	-182.84998	1468.8994	-180.78447	-358.84189	1448.6041	-193.82651	-478.02417	1351.564	-181.39001	-455.52753	1426.1084	-270.93054	-478.41272	1403.2078	-411.50699	-536.82239	1429.7283	-404.27805	-511.71875	1419.0035	-500.51617	53.357712	1458.7264	-170.93663	213.07291	1439.2628	-186.34453	347.33862	1336.9731	-182.51892	299.92035	1416.9111	-263.54352	292.47437	1393.6227	-409.5314	353.1232	1429.7544	-408.55283	320.19104	1428.8179	-500.13159	-193.90129	965.48083	-305.24854	71.072113	994.26837	-282.25052	-132.72626	986.53241	-157.02409	-21.982571	987.28473	-144.66426	-215.94337	607.35913	-277.03693	-203.44449	501.77353	-241.06143	-161.70615	474.32455	-279.36346	-181.37527	93.459938	-174.18614	-134.59099	68.548027	-111.93022	-145.19843	49.40274	-372.29755	115.45916	683.80164	-271.64224	92.894478	502.40994	-250.59119	40.956474	477.62634	-295.94058	88.321251	104.4322	-188.89296	40.041435	63.417122	-119.29308	52.185112	47.355396	-382.9614	118.46268	40.319347	-336.82999	2.9083202	121.31947	-195.58755	-210.29001	43.620495	-323.34402	-101.59985	127.00759	-197.43346	87.438034	767.06036	-334.99887	43.424255	640.31561	-325.52725	-11.258654	490.77435	-241.1293	-207.91223	766.5329	-332.48648	-158.83386	631.77789	-323.94003	-107.6787	488.09915	-226.41573	-8.1999073	1284.4943	-83.819473	267.77499	1421.1759	-146.64345	134.69481	1457.3573	-160.35666	81.736847	1441.1504	-119.92175	76.617058	1446.308	-225.81728	358.34326	1418.5693	-175.39648	344.51929	1424.8904	-493.52661	356.47928	1418.6687	-453.62207	298.53665	1421.6456	-504.95987	-211.15067	1456.7058	-228.96339	-217.33603	1451.9355	-134.87589	-301.94791	1463.8114	-153.84784	-413.91187	1437.1805	-148.71439	-496.1926	1431.7307	-174.40674	-537.64612	1414.806	-494.06641	-493.30688	1416.8728	-503.8324
